# This file uses centimeters as units for non-parametric coordinates.

mtllib arrow.mtl
g default
v -0.003206 -0.006002 9.847359
v 0.003206 -0.006002 9.847359
v -0.003206 0.006002 9.847359
v 0.003206 0.006002 9.847359
v -0.012311 0.042148 9.635653
v 0.012311 0.042148 9.635653
v -0.012311 -0.042148 9.635653
v 0.012311 -0.042148 9.635653
v 0.000000 -0.008472 9.868996
v 0.000000 0.008472 9.868996
v 0.000000 0.066833 9.604816
v 0.000000 -0.066833 9.604816
v -0.004788 0.000000 9.868996
v 0.004788 0.000000 9.868996
v -0.008280 0.022500 9.734009
v 0.008280 0.022500 9.734009
v -0.020076 0.000000 9.604816
v 0.020076 0.000000 9.604816
v -0.008280 -0.022500 9.734009
v 0.008280 -0.022500 9.734009
v 0.000000 0.000000 9.896812
v 0.000000 0.036195 9.722923
v 0.000000 0.000000 9.567610
v 0.000000 -0.036195 9.722923
v 0.013370 0.000000 9.722923
v -0.013370 0.000000 9.722923
v 0.036587 -0.021124 8.085888
v 0.005562 -0.003211 8.085888
v 0.057667 -0.033294 7.923691
v 0.005562 -0.003211 7.923691
v 0.036587 -0.021124 8.085888
v 0.005562 -0.003211 8.085888
v 0.057667 -0.033294 7.923691
v 0.005562 -0.003211 7.923691
v -0.036587 -0.021124 8.085888
v -0.005562 -0.003211 8.085888
v -0.057667 -0.033294 7.923691
v -0.005562 -0.003211 7.923691
v -0.036587 -0.021124 8.085888
v -0.005562 -0.003211 8.085888
v -0.057667 -0.033294 7.923691
v -0.005562 -0.003211 7.923691
v 0.000000 0.042248 8.085888
v 0.000000 0.006423 8.085888
v 0.000000 0.066588 7.923691
v -0.000000 0.006423 7.923691
v -0.000000 0.042248 8.085888
v -0.000000 0.006423 8.085888
v -0.000000 0.066588 7.923691
v 0.000000 0.006423 7.923691
v 0.003285 0.009659 7.923264
v -0.008070 0.005970 7.923264
v -0.008070 -0.005970 7.923264
v 0.003285 -0.009659 7.923264
v 0.010303 0.000000 7.923264
v 0.003285 0.009659 9.716274
v -0.008070 0.005970 9.716274
v -0.008070 -0.005970 9.716274
v 0.003285 -0.009659 9.716274
v 0.010303 0.000000 9.716274
v 0.000147 0.000000 7.923264
v 0.000147 0.000000 9.716274
vt 0.545078 0.824271
vt 0.551650 0.765130
vt 0.573686 0.819675
vt 0.579775 0.892935
vt 0.592074 0.763162
vt 0.602511 0.821103
vt 0.359894 0.186869
vt 0.353175 0.245422
vt 0.330900 0.190284
vt 0.332328 0.116702
vt 0.312724 0.246174
vt 0.302263 0.187623
vt 0.626988 0.458500
vt 0.675437 0.434348
vt 0.663618 0.194208
vt 0.736960 0.107482
vt 0.541785 0.889896
vt 0.462764 0.808338
vt 0.408454 0.547078
vt 0.458415 0.567908
vt 0.548183 0.122354
vt 0.543374 0.011132
vt 0.438894 0.203285
vt 0.359865 0.122679
vt 0.164494 0.900269
vt 0.237930 0.814493
vt 0.352430 0.887873
vt 0.355158 0.999179
vt 0.495859 0.463229
vt 0.444494 0.442796
vt 0.277294 0.551211
vt 0.227424 0.575059
vt 0.560598 0.433302
vt 0.343910 0.576698
vt 0.774838 0.008475
vt 0.991967 0.008475
vt 0.991967 0.991526
vt 0.627315 0.991526
vt 0.774838 0.008475
vt 0.627315 0.991526
vt 0.991967 0.991526
vt 0.991967 0.008475
vt 0.774838 0.008475
vt 0.991967 0.008475
vt 0.991967 0.991526
vt 0.627315 0.991526
vt 0.774838 0.008475
vt 0.627315 0.991526
vt 0.991967 0.991526
vt 0.991967 0.008475
vt 0.774838 0.008475
vt 0.991967 0.008475
vt 0.991967 0.991526
vt 0.627315 0.991526
vt 0.774838 0.008475
vt 0.627315 0.991526
vt 0.991967 0.991526
vt 0.991967 0.008475
vt 0.026948 0.012882
vt 0.040416 0.011886
vt 0.040416 0.989054
vt 0.026948 0.988058
vt 0.054808 0.010380
vt 0.054808 0.990560
vt 0.069170 0.010380
vt 0.069170 0.990560
vt 0.083562 0.011886
vt 0.083562 0.989054
vt 0.097030 0.012882
vt 0.097030 0.988058
vt 0.343725 0.036439
vt 0.377242 0.025549
vt 0.367978 0.052861
vt 0.343725 0.071681
vt 0.377242 0.082571
vt 0.397957 0.054060
vt 0.555344 0.973571
vt 0.526722 0.964271
vt 0.547433 0.948199
vt 0.526722 0.934176
vt 0.555344 0.924876
vt 0.573033 0.949223
vn -0.000000 -0.977019 0.213152
vn 0.899166 -0.426687 0.097150
vn 0.995085 0.000000 0.099024
vn 0.000000 0.000000 1.000000
vn 0.995085 0.000000 0.099024
vn 0.899166 0.426687 0.097150
vn 0.000000 0.977019 0.213152
vn 0.000000 0.000000 1.000000
vn 0.000000 0.977019 0.213152
vn -0.899166 0.426687 0.097150
vn -0.995085 0.000000 0.099024
vn 0.000000 0.000000 1.000000
vn -0.995085 0.000000 0.099024
vn -0.899166 -0.426687 0.097150
vn -0.000000 -0.977019 0.213152
vn 0.000000 0.000000 1.000000
vn 0.000000 0.977019 0.213152
vn 0.899166 0.426687 0.097150
vn 0.915622 0.389613 0.099188
vn 0.000000 0.974344 0.225062
vn 0.915622 0.389613 0.099188
vn 0.934161 0.354534 -0.040599
vn -0.000000 0.979017 -0.203778
vn 0.000000 0.974344 0.225062
vn -0.000000 0.979017 -0.203778
vn -0.934161 0.354534 -0.040599
vn -0.915622 0.389613 0.099188
vn 0.000000 0.974344 0.225062
vn -0.915622 0.389613 0.099188
vn -0.899166 0.426687 0.097150
vn 0.000000 0.977019 0.213152
vn 0.000000 0.974344 0.225062
vn -0.000000 0.979017 -0.203778
vn 0.934161 0.354534 -0.040599
vn 0.990045 0.000000 -0.140752
vn 0.000000 0.000000 -1.000000
vn 0.990045 0.000000 -0.140752
vn 0.934161 -0.354534 -0.040599
vn 0.000000 -0.979017 -0.203778
vn 0.000000 0.000000 -1.000000
vn 0.000000 -0.979017 -0.203778
vn -0.934161 -0.354534 -0.040599
vn -0.990045 0.000000 -0.140752
vn 0.000000 0.000000 -1.000000
vn -0.990045 0.000000 -0.140752
vn -0.934161 0.354534 -0.040599
vn -0.000000 0.979017 -0.203778
vn 0.000000 0.000000 -1.000000
vn 0.000000 -0.979017 -0.203778
vn 0.934161 -0.354534 -0.040599
vn 0.915622 -0.389613 0.099188
vn 0.000000 -0.974344 0.225062
vn 0.915622 -0.389613 0.099188
vn 0.899166 -0.426687 0.097150
vn -0.000000 -0.977019 0.213152
vn 0.000000 -0.974344 0.225062
vn -0.000000 -0.977019 0.213152
vn -0.899166 -0.426687 0.097150
vn -0.915622 -0.389613 0.099188
vn 0.000000 -0.974344 0.225062
vn -0.915622 -0.389613 0.099188
vn -0.934161 -0.354534 -0.040599
vn 0.000000 -0.979017 -0.203778
vn 0.000000 -0.974344 0.225062
vn 0.915622 -0.389613 0.099188
vn 0.934161 -0.354534 -0.040599
vn 0.990045 0.000000 -0.140752
vn 0.997796 0.000000 0.066351
vn 0.990045 0.000000 -0.140752
vn 0.934161 0.354534 -0.040599
vn 0.915622 0.389613 0.099188
vn 0.997796 0.000000 0.066351
vn 0.915622 0.389613 0.099188
vn 0.899166 0.426687 0.097150
vn 0.995085 0.000000 0.099024
vn 0.997796 0.000000 0.066351
vn 0.995085 0.000000 0.099024
vn 0.899166 -0.426687 0.097150
vn 0.915622 -0.389613 0.099188
vn 0.997796 0.000000 0.066351
vn -0.915622 -0.389613 0.099188
vn -0.899166 -0.426687 0.097150
vn -0.995085 0.000000 0.099024
vn -0.997796 0.000000 0.066351
vn -0.995085 0.000000 0.099024
vn -0.899166 0.426687 0.097150
vn -0.915622 0.389613 0.099188
vn -0.997796 0.000000 0.066351
vn -0.915622 0.389613 0.099188
vn -0.934161 0.354534 -0.040599
vn -0.990045 0.000000 -0.140752
vn -0.997796 0.000000 0.066351
vn -0.990045 0.000000 -0.140752
vn -0.934161 -0.354534 -0.040599
vn -0.915622 -0.389613 0.099188
vn -0.997796 0.000000 0.066351
vn -0.500000 -0.866025 0.000000
vn -0.500000 -0.866025 0.000000
vn -0.500000 -0.866025 0.000000
vn -0.500000 -0.866025 0.000000
vn 0.500000 0.866025 -0.000000
vn 0.500000 0.866025 -0.000000
vn 0.500000 0.866025 -0.000000
vn 0.500000 0.866025 -0.000000
vn -0.500000 0.866025 0.000000
vn -0.500000 0.866025 0.000000
vn -0.500000 0.866025 0.000000
vn -0.500000 0.866025 0.000000
vn 0.500000 -0.866025 -0.000000
vn 0.500000 -0.866025 -0.000000
vn 0.500000 -0.866025 -0.000000
vn 0.500000 -0.866025 -0.000000
vn 1.000000 -0.000000 -0.000000
vn 1.000000 -0.000000 -0.000000
vn 1.000000 -0.000000 -0.000000
vn 1.000000 -0.000000 -0.000000
vn -1.000000 -0.000000 -0.000000
vn -1.000000 -0.000000 -0.000000
vn -1.000000 -0.000000 -0.000000
vn -1.000000 -0.000000 -0.000000
vn 0.309017 0.951057 0.000000
vn -0.809017 0.587785 0.000000
vn -0.809017 0.587785 0.000000
vn 0.309017 0.951057 0.000000
vn -0.809017 0.587785 0.000000
vn -0.809017 -0.587785 0.000000
vn -0.809017 -0.587785 0.000000
vn -0.809017 0.587785 0.000000
vn -0.809017 -0.587785 0.000000
vn 0.309017 -0.951057 0.000000
vn 0.309017 -0.951057 0.000000
vn -0.809017 -0.587785 0.000000
vn 0.309017 -0.951057 0.000000
vn 1.000000 -0.000000 0.000000
vn 1.000000 -0.000000 0.000000
vn 0.309017 -0.951057 0.000000
vn 1.000000 -0.000000 0.000000
vn 0.309017 0.951057 0.000000
vn 0.309017 0.951057 0.000000
vn 1.000000 -0.000000 0.000000
vn -0.000003 0.000000 -1.000000
vn 0.000000 0.000000 -1.000000
vn -0.000001 0.000000 -1.000000
vn -0.000003 0.000000 -1.000000
vn -0.000003 0.000000 -1.000000
vn -0.000001 0.000000 -1.000000
vn 0.000000 0.000000 -1.000000
vn -0.000003 0.000000 -1.000000
vn -0.000001 0.000000 -1.000000
vn 0.000000 0.000000 -1.000000
vn 0.000000 0.000000 -1.000000
vn -0.000001 0.000000 -1.000000
vn 0.000000 0.000000 -1.000000
vn 0.000000 0.000000 -1.000000
vn -0.000001 0.000000 -1.000000
vn 0.000000 0.000000 1.000000
vn -0.000003 0.000000 1.000000
vn -0.000001 0.000000 1.000000
vn -0.000003 0.000000 1.000000
vn -0.000003 0.000000 1.000000
vn -0.000001 0.000000 1.000000
vn -0.000003 0.000000 1.000000
vn 0.000000 0.000000 1.000000
vn -0.000001 0.000000 1.000000
vn 0.000000 0.000000 1.000000
vn 0.000000 0.000000 1.000000
vn -0.000001 0.000000 1.000000
vn 0.000000 0.000000 1.000000
vn 0.000000 0.000000 1.000000
vn -0.000001 0.000000 1.000000
s off
g polySurface9
usemtl Erika_Archer_Arrow_MeshSG
f 9/1/1 2/2/2 14/3/3 21/4/4
f 14/3/5 4/5/6 10/6/7 21/4/8
f 10/7/9 3/8/10 13/9/11 21/10/12
f 13/9/13 1/11/14 9/12/15 21/10/16
f 10/6/17 4/5/18 16/13/19 22/14/20
f 16/13/21 6/15/22 11/16/23 22/14/24
f 11/17/25 5/18/26 15/19/27 22/20/28
f 15/19/29 3/8/30 10/7/31 22/20/32
f 11/16/33 6/15/34 18/21/35 23/22/36
f 18/21/37 8/23/38 12/24/39 23/22/40
f 12/25/41 7/26/42 17/27/43 23/28/44
f 17/27/45 5/18/46 11/17/47 23/28/48
f 12/24/49 8/23/50 20/29/51 24/30/52
f 20/29/53 2/2/54 9/1/55 24/30/56
f 9/12/57 1/11/58 19/31/59 24/32/60
f 19/31/61 7/26/62 12/25/63 24/32/64
f 20/29/65 8/23/66 18/21/67 25/33/68
f 18/21/69 6/15/70 16/13/71 25/33/72
f 16/13/73 4/5/74 14/3/75 25/33/76
f 14/3/77 2/2/78 20/29/79 25/33/80
f 19/31/81 1/11/82 13/9/83 26/34/84
f 13/9/85 3/8/86 15/19/87 26/34/88
f 15/19/89 5/18/90 17/27/91 26/34/92
f 17/27/93 7/26/94 19/31/95 26/34/96
f 27/35/97 28/36/98 30/37/99 29/38/100
f 31/39/101 33/40/102 34/41/103 32/42/104
f 35/43/105 36/44/106 38/45/107 37/46/108
f 39/47/109 41/48/110 42/49/111 40/50/112
f 43/51/113 44/52/114 46/53/115 45/54/116
f 47/55/117 49/56/118 50/57/119 48/58/120
f 51/59/121 52/60/122 57/61/123 56/62/124
f 52/60/125 53/63/126 58/64/127 57/61/128
f 53/63/129 54/65/130 59/66/131 58/64/132
f 54/65/133 55/67/134 60/68/135 59/66/136
f 55/67/137 51/69/138 56/70/139 60/68/140
f 52/71/141 51/72/142 61/73/143
f 53/74/144 52/71/145 61/73/146
f 54/75/147 53/74/148 61/73/149
f 55/76/150 54/75/151 61/73/152
f 51/72/153 55/76/154 61/73/155
f 56/77/156 57/78/157 62/79/158
f 57/78/159 58/80/160 62/79/161
f 58/80/162 59/81/163 62/79/164
f 59/81/165 60/82/166 62/79/167
f 60/82/168 56/77/169 62/79/170
